<mxfile host="Electron" modified="2023-12-19T12:02:07.427Z" agent="Mozilla/5.0 (Windows NT 10.0; Win64; x64) AppleWebKit/537.36 (KHTML, like Gecko) draw.io/22.1.2 Chrome/114.0.5735.289 Electron/25.9.4 Safari/537.36" etag="jXuuUfKjg1gZYogpEpCR" version="22.1.2" type="device">
  <diagram name="第 1 页" id="uRy5gBn8URtkVs1OvzBp">
    <mxGraphModel dx="537" dy="901" grid="1" gridSize="10" guides="1" tooltips="1" connect="1" arrows="1" fold="1" page="1" pageScale="1" pageWidth="827" pageHeight="1169" math="0" shadow="0">
      <root>
        <mxCell id="0" />
        <mxCell id="1" parent="0" />
        <mxCell id="4rsCxKbqfIBhKWwIWWUZ-3" value="" style="rounded=0;whiteSpace=wrap;html=1;" vertex="1" parent="1">
          <mxGeometry x="120" y="350" width="480" height="70" as="geometry" />
        </mxCell>
        <mxCell id="4rsCxKbqfIBhKWwIWWUZ-4" value="" style="rounded=0;whiteSpace=wrap;html=1;fillColor=#dae8fc;strokeColor=#6c8ebf;" vertex="1" parent="1">
          <mxGeometry x="120" y="350" width="384" height="70" as="geometry" />
        </mxCell>
        <mxCell id="4rsCxKbqfIBhKWwIWWUZ-5" value="S0" style="rounded=0;whiteSpace=wrap;html=1;fillColor=#d5e8d4;strokeColor=#82b366;fontStyle=1;fontSize=14;" vertex="1" parent="1">
          <mxGeometry x="504" y="350" width="48" height="70" as="geometry" />
        </mxCell>
        <mxCell id="4rsCxKbqfIBhKWwIWWUZ-6" value="S1" style="rounded=0;whiteSpace=wrap;html=1;fillColor=#ffe6cc;strokeColor=#d79b00;fontSize=14;fontStyle=1" vertex="1" parent="1">
          <mxGeometry x="552" y="350" width="48" height="70" as="geometry" />
        </mxCell>
        <mxCell id="4rsCxKbqfIBhKWwIWWUZ-7" value="Eden" style="text;html=1;strokeColor=none;fillColor=none;align=center;verticalAlign=middle;whiteSpace=wrap;rounded=0;fontStyle=1;fontSize=14;" vertex="1" parent="1">
          <mxGeometry x="282" y="370" width="60" height="30" as="geometry" />
        </mxCell>
      </root>
    </mxGraphModel>
  </diagram>
</mxfile>
